<svg xmlns="http://www.w3.org/2000/svg" shape-rendering="geometricPrecision" text-rendering="geometricPrecision" image-rendering="optimizeQuality" fill-rule="evenodd" clip-rule="evenodd" viewBox="0 0 512 512"><path d="M331.55 293.9h20.08c4.1 0 7.45 3.35 7.45 7.44v27.27h27.26c4.1 0 7.45 3.35 7.45 7.44v20.08c0 4.1-3.35 7.45-7.45 7.45h-27.26v27.26c0 4.09-3.35 7.44-7.45 7.44h-20.08c-4.09 0-7.44-3.35-7.44-7.44v-27.26h-27.26c-4.11 0-7.45-3.35-7.45-7.45v-20.08c0-4.09 3.34-7.44 7.45-7.44h27.26v-27.27c0-4.09 3.35-7.44 7.44-7.44zm10.04-59.03c9.22 0 18.09 1.12 26.6 3.21.99-3.75.09-7.95-2.66-10.92l-81.73-81.7c-4.31-4.35-11.58-4.48-16.07-.34L145.38 267.5c-4.46 4.45-4.46 11.92 0 16.37l81.43 81.43c1.63 1.64 3.67 2.68 5.8 3.11-1.47-7.21-2.24-14.67-2.24-22.32 0-30.71 12.45-58.52 32.58-78.64 20.12-20.12 47.93-32.58 78.64-32.58zm41.93 8.18c9.77 3.97 18.81 9.29 26.97 15.74l30.43-30.43c-.78-.4-1.53-.94-2.25-1.66l-11.83-11.83c-.32-.32-.55-.6-.81-.93-6.1-8.54 5.5-18.06 12.64-10.92l11.84 11.84c.31.31.54.6.8.93.32.45.6.91.82 1.37l41.56-41.57c2.47-2.08 2.33-6.42.16-8.59l-37.71-37.71a55.893 55.893 0 0 1-13.82 4.17c-43.92 7.23-77.16-37.31-59.31-77.31l-37.69-37.69c-2.39-2.39-6.4-2.36-8.76 0L295.2 59.81c.5.33.98.72 1.44 1.19l11.84 11.84c.31.31.54.59.8.92 6.1 8.54-5.49 18.06-12.64 10.91l-11.83-11.83c-.31-.31-.54-.6-.8-.93l-.36-.54L71.19 283.82c.71.38 1.41.91 2.07 1.57l11.83 11.83c.31.31.54.6.8.92 6.1 8.54-5.49 18.05-12.63 10.91l-11.84-11.83c-.31-.32-.54-.6-.81-.93-.27-.39-.51-.79-.72-1.17l-41.43 41.44c-2.35 2.31-2.33 6.43 0 8.76l37.36 37.36c4.44-2.19 9.15-3.78 13.94-4.69 38.58-7.43 71.68 26.53 64.4 64.41a54.42 54.42 0 0 1-4.69 13.94l37.36 37.35c2.38 2.4 6.4 2.36 8.76 0l41.31-41.3c-.56-.36-1.1-.79-1.62-1.31l-11.84-11.83c-.3-.32-.53-.6-.8-.93-6.09-8.54 5.49-18.05 12.64-10.91l11.83 11.84c.32.3.54.6.81.92l.47.73 25.9-25.9c-7.08-9.11-12.91-19.29-17.04-30.34-7.85.63-15.92-2.03-21.85-7.96l-81.43-81.43c-10.72-10.72-10.72-28.45 0-39.18l122.57-122.52c10.78-10.28 28.07-10.07 38.62.46l81.94 81.94c7.03 7.42 9.16 17.84 6.42 27.08zm39.16 26.93c18.67 19.89 30.13 46.67 30.13 76.11 0 30.71-12.45 58.52-32.57 78.64-20.12 20.12-47.95 32.58-78.65 32.58-29.44 0-56.23-11.47-76.12-30.14l-78.2 78.21-.53.36c-8.79 8.46-23.03 8.34-31.74-.36l-41.79-41.78c-2.77-2.77-3.1-7.22-.99-10.48 2.44-3.75 4.21-7.84 5.23-12.05 6.65-27.63-18.02-53.49-46.37-46.69-4.12.98-8.17 2.71-11.84 5.06a8.273 8.273 0 0 1-10.71-.7L6.62 356.85c-8.72-8.73-8.89-23.14-.1-32.01L324.73 6.62c8.78-8.78 23.25-8.87 32.12 0l42.09 42.08c2.64 2.65 3.07 6.92 1.19 10.11-17.63 28.05 7.57 64.69 40.82 57.78 4.08-.86 8.09-2.39 11.78-4.57 3.35-2.1 7.73-1.79 10.56 1.04l42.09 42.09c8.83 8.82 8.83 23.3 0 32.12l-82.7 82.71zM332.16 96.51c-7.16-7.14-18.74 2.37-12.65 10.91.27.32.5.62.8.92l11.84 11.84c7.15 7.15 18.74-2.37 12.64-10.91-.26-.33-.49-.61-.8-.93l-11.83-11.83zm35.5 35.5c-7.14-7.14-18.74 2.37-12.64 10.92.26.32.49.61.8.92l11.84 11.84c7.14 7.14 18.74-2.38 12.63-10.91-.25-.33-.48-.62-.8-.93l-11.83-11.84zm35.51 35.51c-7.15-7.14-18.75 2.38-12.64 10.91.26.32.49.62.8.93l11.83 11.83c7.15 7.15 18.74-2.37 12.65-10.91-.27-.32-.5-.62-.81-.92l-11.83-11.84zM108.76 320.89c-7.14-7.15-18.73 2.37-12.63 10.91.26.32.49.62.8.92l11.83 11.83c7.14 7.16 18.74-2.36 12.64-10.89-.26-.34-.49-.62-.81-.93l-11.83-11.84zm35.51 35.51c-7.15-7.14-18.74 2.36-12.64 10.91.26.32.49.61.81.92l11.83 11.84c7.14 7.14 18.73-2.38 12.64-10.91-.27-.33-.5-.62-.8-.93l-11.84-11.83zm35.5 35.5c-7.14-7.14-18.72 2.37-12.63 10.91.26.32.49.62.8.92l11.83 11.84c7.15 7.14 18.74-2.37 12.64-10.9-.26-.34-.49-.62-.8-.94l-11.84-11.83zm161.82-140.29c52.19 0 94.49 42.3 94.49 94.48 0 52.18-42.3 94.48-94.49 94.48-52.18 0-94.48-42.3-94.48-94.48 0-52.18 42.3-94.48 94.48-94.48z"/></svg>