<?xml version="1.0" encoding="utf-8"?>
<!-- Svg Vector Icons : http://www.onlinewebfonts.com/icon -->
<!DOCTYPE svg PUBLIC "-//W3C//DTD SVG 1.1//EN" "http://www.w3.org/Graphics/SVG/1.1/DTD/svg11.dtd">
<svg version="1.1" xmlns="http://www.w3.org/2000/svg" xmlns:xlink="http://www.w3.org/1999/xlink" x="0px" y="0px" viewBox="0 0 256 256" enable-background="new 0 0 256 256" xml:space="preserve">
<metadata> Svg Vector Icons : http://www.onlinewebfonts.com/icon </metadata>
<g><g><path fill="#000000" d="M210.7,92.3h-47V21.7c0-0.3,0-0.6,0-0.9c0-4.8-3.2-8.9-7.6-10.3c-1.1-0.4-2.3-0.6-3.6-0.6c-0.6,0-1.1,0-1.7,0.1h-47.7c-4.5,0-8.4,2.8-10,6.7c-0.6,1.3-0.8,2.6-0.8,4.1v71.3h-47c-5.9,0-10.7,5-10.7,10.9c0,2,0.6,4,1.6,5.7c0.5,0.8,1,1.6,1.7,2.3l76.6,92.8c2.6,2.6,6.1,3.5,9.4,3c3.7,1.2,7.9,0.3,10.8-2.6l83.2-92.8c1.1-1.1,1.9-2.4,2.5-3.8c0.7-1.6,1.2-3.3,1.2-5.1C221.4,96.6,216.6,92.3,210.7,92.3z M124.8,183.1L68,114.3h35.3c0.6,0,1.2,0,1.7-0.1c5.2-0.7,9.3-5.2,9.3-10.7V32h27.5v71.3c0,4.6,2.8,8.4,6.8,10c1.3,0.6,2.8,1,4.3,1h33.6L124.8,183.1z M202.2,224H53.5c-5.9,0-11,4.8-11,10.8c0,5.9,4.8,11.2,10.8,11.2h149c5.9,0,10.8-4.9,10.8-10.8C213,229.2,208.2,224,202.2,224z"/></g></g>
</svg>