<?xml version="1.0" encoding="utf-8"?>
<!-- Svg Vector Icons : http://www.onlinewebfonts.com/icon -->
<!DOCTYPE svg PUBLIC "-//W3C//DTD SVG 1.1//EN" "http://www.w3.org/Graphics/SVG/1.1/DTD/svg11.dtd">
<svg version="1.1" xmlns="http://www.w3.org/2000/svg" xmlns:xlink="http://www.w3.org/1999/xlink" x="0px" y="0px" viewBox="0 0 256 256" enable-background="new 0 0 256 256" xml:space="preserve">
<metadata> Svg Vector Icons : http://www.onlinewebfonts.com/icon </metadata>
<g><g><g><path fill="#000000" d="M21.8,128v118h101.9h101.9v-32.8v-32.8h4.3h4.3v-36.3v-36.3h-4.3h-4.3V87.5l-0.1-20.3l-27.7-28.6L170,10.1H95.9L21.8,10V128z M159.4,52.9v25h24.2h24.2v15v15H132H56.3v36.3v36.3H132h75.7v23.9v23.9h-84h-84V128V27.8h59.9h59.9V52.9z M154.5,131.7c5.3,1.6,7.7,5.5,7.7,12.7c0,8.2-3.2,12.3-10.2,13.3c-3.7,0.5-8.6-0.9-10.6-3.1c-2.4-2.5-3.3-5.4-3.3-10.4c0.1-7,2.4-10.9,7.5-12.5C149,130.7,151.1,130.7,154.5,131.7z M194.3,131.5c4.2,0.9,4.4,1.2,3.4,3.7c-0.7,1.7-1.2,2.1-1.9,1.7c-7.1-2.9-11.1-0.2-11.1,7.9c0,7.4,3.3,9.6,11.4,7.5c1.2-0.3,1.3-0.1,1.3,2v2.3l-2.9,0.6c-5.5,1.2-9,0.3-12.1-2.8c-2.4-2.4-3.4-5.2-3.4-9.8c0-4.3,0.9-7.1,3-9.6C185.2,131.4,188.9,130.3,194.3,131.5z M79.4,144.4v13h-2.9h-2.9v-13v-13h2.9h2.9V144.4z M98.1,140.8c2.9,4.9,5.4,9.2,5.6,9.4c0.2,0.2,0.2-3.9,0.1-9.2l-0.3-9.6h2.6h2.7v13v13l-3.6-0.2l-3.6-0.2l-5.6-9.7l-5.6-9.8l0.3,9.9l0.3,9.9h-2.6h-2.7v-13v-13l3.6,0.2l3.6,0.2L98.1,140.8z M120.1,139.3c1.3,4.4,2.7,9,3.1,10.2l0.6,2.3l0.5-2c0.3-1.1,1.7-5.7,3.2-10.2l2.6-8.2h2.8h2.8l-4.4,13l-4.4,13l-3.1-0.2l-3.1-0.2l-4-11.8c-2.1-6.5-4.1-12.3-4.3-12.8c-0.3-0.9,0.1-1,2.5-1h2.8L120.1,139.3z M173.2,144.4v13h-2.6H168v-13v-13h2.6h2.6V144.4z M218.1,133.8v2.3h-4.6h-4.6v2.9v2.9h4.3h4.3v2.3v2.3h-4.3h-4.3v3.2v3.2h4.6h4.6v2.3v2.3h-7.5h-7.5v-13v-13h7.5h7.5V133.8z"/><path fill="#000000" d="M147.2,136.4c-2.4,1.3-3.3,3.6-3.3,8.2c0,4.8,1.5,7.5,4.5,8.4c2.7,0.7,5.3-0.2,6.9-2.5c1.8-2.6,1.9-9.2,0.2-12C153.6,135.5,150.2,134.7,147.2,136.4z"/></g></g></g>
</svg>