<?xml version="1.0" encoding="utf-8"?>
<!-- Svg Vector Icons : http://www.onlinewebfonts.com/icon -->
<!DOCTYPE svg PUBLIC "-//W3C//DTD SVG 1.1//EN" "http://www.w3.org/Graphics/SVG/1.1/DTD/svg11.dtd">
<svg version="1.1" xmlns="http://www.w3.org/2000/svg" xmlns:xlink="http://www.w3.org/1999/xlink" x="0px" y="0px" viewBox="0 0 256 256" enable-background="new 0 0 256 256" xml:space="preserve">
<metadata> Svg Vector Icons : http://www.onlinewebfonts.com/icon </metadata>
<g><g><path fill="#000000" d="M128.1,246c15.9,0,29.5-9.3,35.9-22.7H92.2C98.5,236.7,112.2,246,128.1,246L128.1,246z"/><path fill="#000000" d="M224.7,189.1L224.7,189.1c-9.9-2.7-17.1-11.6-17.1-22.3c0-0.2,0-0.3,0-0.5h0v-62.6h-0.1c-1.3-39.4-30.3-71.7-68.1-78.3v-1.3c0-7.9-6.4-14.2-14.2-14.2c-7.9,0-14.2,6.4-14.2,14.2v1.3c-37.8,6.6-66.8,38.9-68.1,78.3h-0.1v62.5h-0.1c0,0.4,0.1,0.8,0.1,1.3c0,9.7-5.8,18.1-14.2,21.8c-4.9,1.3-8.6,5.7-8.6,11c0,6.3,5.1,11.4,11.4,11.4h193.4c6.3,0,11.4-5.1,11.4-11.4C236.1,194.2,231,189.1,224.7,189.1L224.7,189.1z"/></g></g>
</svg>