<?xml version="1.0" encoding="utf-8"?>
<!-- Svg Vector Icons : http://www.onlinewebfonts.com/icon -->
<!DOCTYPE svg PUBLIC "-//W3C//DTD SVG 1.1//EN" "http://www.w3.org/Graphics/SVG/1.1/DTD/svg11.dtd">
<svg version="1.1" xmlns="http://www.w3.org/2000/svg" xmlns:xlink="http://www.w3.org/1999/xlink" x="0px" y="0px" viewBox="0 0 256 256" enable-background="new 0 0 256 256" xml:space="preserve">
<metadata> Svg Vector Icons : http://www.onlinewebfonts.com/icon </metadata>
<g><g><path fill="#000000" d="M138.9,246l1.7-20.1l63.3-75.9l17.8,14.8L158,241.2L138.9,246z"/><path fill="#000000" d="M213.7,139.4l17.7,14.8l-7.1,8.5l-17.7-14.8L213.7,139.4z"/><path fill="#000000" d="M125.7,245.7H24.6v-225h47.5v14.7H39.3V231h86.4L125.7,245.7L125.7,245.7z"/><path fill="#000000" d="M205.4,141.2h-14.7V35.4H158V20.7h47.4V141.2z"/><path fill="#000000" d="M95.2,20.7h43.5v14.7H95.2V20.7z"/><path fill="#000000" d="M76,10h14.7v34H76V10z"/><path fill="#000000" d="M141.3,10H156v34h-14.7V10z"/><path fill="#000000" d="M58.1,80.6c0,4.9,3.9,8.8,8.8,8.8c4.9,0,8.8-3.9,8.8-8.8c0-4.9-3.9-8.8-8.8-8.8C62.1,71.8,58.1,75.7,58.1,80.6L58.1,80.6L58.1,80.6z"/><path fill="#000000" d="M58.1,130.3c0,4.9,3.9,8.8,8.8,8.8c4.9,0,8.8-4,8.8-8.8l0,0c0-4.9-3.9-8.8-8.8-8.8C62.1,121.4,58.1,125.4,58.1,130.3L58.1,130.3L58.1,130.3z"/><path fill="#000000" d="M58.1,179.9c0,4.9,3.9,8.8,8.8,8.8c4.9,0,8.8-4,8.8-8.8l0,0c0-4.9-3.9-8.8-8.8-8.8C62.1,171.1,58.1,175.1,58.1,179.9L58.1,179.9z"/><path fill="#000000" d="M93.1,76.9h77.7v7.3H93.1V76.9z"/><path fill="#000000" d="M93.1,126.6h77.7v7.3H93.1V126.6L93.1,126.6z"/><path fill="#000000" d="M93.1,176.2H158v7.3H93.1V176.2z"/><path fill="#000000" d="M128.5,240.8"/></g></g>
</svg>