<!--?xml version="1.0" encoding="utf-8"?-->
<!-- Svg Vector Icons : http://www.onlinewebfonts.com/icon -->

<svg version="1.1" xmlns="http://www.w3.org/2000/svg" xmlns:xlink="http://www.w3.org/1999/xlink" x="0px" y="0px" viewBox="0 0 256 256" enable-background="new 0 0 256 256" xml:space="preserve">
<metadata> Svg Vector Icons : http://www.onlinewebfonts.com/icon </metadata>
<g><g><g><path fill="#959494" data-title="Layer 0" xs="0" d="M119.8,10.1c-13.8,1.3-26.5,5.3-37,11.6c-15.4,9.2-25.7,21.5-31.1,37.4L50.1,64l-2.8,0.3c-1.7,0.1-3.5,0.7-4.4,1.3C35,70.3,29,86.4,29.7,100.3c0.6,10.7,4.1,17.6,10.7,20.8c2.4,1.2,3.7,1.5,7.1,1.7c4.9,0.3,7.5-0.6,9.6-3.4l1.3-1.7l0.1-22.9c0.1-12.6,0-23.6-0.1-24.4c-0.1-0.8-0.8-2.1-1.4-2.9l-1.2-1.4l1.4-3.4c8.5-20.5,30.3-34.4,58.9-37.7c2.3-0.3,7.6-0.5,11.8-0.5c16,0,29.1,2.8,41.8,9c13.6,6.6,24.5,17.8,29.3,30.1l0.9,2.4l-1.2,1.8l-1.2,1.7l-0.2,18.1l-0.2,18.1l-1.2,2.3c-0.7,1.3-2.3,3.5-3.5,5l-2.2,2.7l-0.4-1.3c-0.2-0.7-0.6-3.3-1-5.7l-0.6-4.4l1.7-5.3c1.6-5.1,1.7-5.6,1.7-12c0-5.7-0.2-7.3-1.2-11.1c-6.1-22.6-24.6-39.4-49.4-44.8c-6.9-1.6-18.9-1.6-25.7,0c-8.7,1.9-16.5,5.1-23.3,9.5c-11.6,7.4-20.4,18.5-24.8,31c-3,8.6-3.5,15.7-1.9,30.3c1.2,11,1.2,12.9-0.2,18.9c-5.1,22.2-14.7,42.8-27.2,58.2c-1.7,2.1-3,3.9-2.9,4.1c0.1,0.1,1.9,0.8,4,1.5l3.8,1.3l-5.2,2.6c-16.6,8.3-23.2,17-26.4,34.9c-1.8,10.2-1.2,15.5,2.6,19.2c1.2,1.2,2.9,2.3,4.4,2.8c2.4,0.8,5.9,0.9,110,0.9c104.1,0,107.6,0,110-0.9c3.3-1.2,6.1-4,7.3-7.3c1.1-3.1,1-8.7,0-14.9c-1.7-9.9-4.9-16.8-10.5-22.7c-4.5-4.8-8.2-7.4-15.8-11.4c-3.3-1.7-5.7-3.2-5.3-3.3c3.3-1,7.9-2.8,7.9-3.1c0-0.2-0.3-0.6-0.7-1c-1.2-1.1-8.2-10.6-11.2-15.4c-6.1-9.9-12.1-23.2-15.5-34.9c-1.9-6.5-2.2-5.6,2.6-9c2.6-1.8,3.1-2,3.7-1.5c2,2.5,10.1,2.8,14.9,0.6c6.9-3.2,10.8-10.4,11.3-21.2c0.7-13.9-5.4-30-13.1-34.7c-1-0.6-2.8-1.2-4.4-1.3l-2.8-0.3l-1.7-4.9c-10-28.8-38.8-48-74-49.2C126.9,9.8,122.2,9.9,119.8,10.1z M115.7,67.2c7.3,9.8,15.6,16.3,24.8,19.1c4.3,1.3,7.3,1.8,16.5,2.6c9.5,0.8,13,1.6,17.3,3.8c3.4,1.8,8.9,7.1,9.4,9.2c0.5,1.9-4.3,15.7-8.1,23.2c-1.2,2.4-1.8,3-4.5,4.6c-8.2,4.9-17.9,9.2-24.7,11c-3.4,0.9-4.1,1-4.1,0.4c0-0.4-0.5-1.2-1.2-1.8c-1.1-1.2-1.2-1.2-10.6-1.2H121l-1.3,1.3c-1.2,1.3-1.3,1.6-1.3,5.3c0,7.4,0.4,7.7,12.4,7.7c8.7,0,8.8,0,10.1-1.2c0.8-0.6,1.5-1.8,1.7-2.5c0.2-1.2,0.6-1.3,3.4-1.8c3.8-0.7,12.7-3.7,17.5-5.8c1.9-0.9,3.6-1.6,3.7-1.5c0.4,0.3-6.3,8.7-10.2,12.7c-7,7.4-14.8,12.4-22,14.3c-8.4,2.2-19,0-27.7-5.5c-12-7.8-23.9-23.9-30.6-41.6l-1.7-4.6l1.8-5.3c6.1-17.7,14.5-30.1,26.7-39.4c2.8-2.1,9-6.2,9.7-6.5C113.1,63.8,114.3,65.3,115.7,67.2z M155.7,167.2c3.1,3.8,1.3,8.1-8.9,21.8c-3.7,4.9-7.9,10.9-9.4,13.2c-2.8,4.5-6.8,12.8-8.3,16.8c-0.5,1.3-1,2.4-1.1,2.4s-0.6-1.1-1.1-2.4c-1.4-4.1-5.5-12.3-8.3-16.8c-1.4-2.4-5.6-8.3-9.3-13.2c-9.8-13.1-12-18-9.2-21.4l1.1-1.4l3.2,2.4c11.8,8.9,25.9,10.8,37.2,5.1c3.5-1.7,9.1-5.5,10.6-7.1C153.5,165.1,154,165.1,155.7,167.2z"/></g></g></g>
</svg>