<?xml version="1.0" encoding="utf-8"?>
<!-- Svg Vector Icons : http://www.onlinewebfonts.com/icon -->
<!DOCTYPE svg PUBLIC "-//W3C//DTD SVG 1.1//EN" "http://www.w3.org/Graphics/SVG/1.1/DTD/svg11.dtd">
<svg version="1.1" xmlns="http://www.w3.org/2000/svg" xmlns:xlink="http://www.w3.org/1999/xlink" x="0px" y="0px" viewBox="0 0 256 256" enable-background="new 0 0 256 256" xml:space="preserve">
<metadata> Svg Vector Icons : http://www.onlinewebfonts.com/icon </metadata>
<g><g><g><path fill="#000000" d="M14.4,43.8c-1.7,0.7-3.2,2.4-3.9,4.1c-0.7,1.8-0.7,41.7,0,43.5c0.7,1.9,2.6,3.7,5.3,4.9c3,1.4,6,4.4,7.5,7.4c1.5,3.1,1.6,8.7,0.1,11.8c-1.5,3.4-4,5.8-7.7,7.6c-2.2,1-3.8,2.1-4.5,3.1l-1.1,1.5v21.9v21.9l1.1,1.6c2.2,3.1,3.2,3.3,18.8,3.3h13.9l0.1,15.5c0.1,15.4,0.1,15.6,1.2,17.3c0.6,1,1.8,2.2,2.9,2.6c1.8,0.9,2.9,0.9,97.4,0.8l95.6-0.1l1.2-1c0.7-0.5,1.7-1.5,2.2-2.2c0.9-1.2,1-1.9,1.1-21.8c0.1-11.3,0-21.3-0.1-22.1c-0.4-2.2-2.6-4.5-5.7-5.9c-3.2-1.5-5.8-3.9-7.4-6.9c-1.1-2-1.2-2.9-1.2-6.2c0-3.4,0.2-4.2,1.3-6.4c1.7-3.2,4.1-5.5,8-7.5c2.4-1.2,3.4-2,4.2-3.5l1.1-1.8l-0.1-21.3c-0.1-20.7-0.1-21.3-1.1-22.5c-0.5-0.7-1.5-1.7-2.2-2.2c-1.2-0.9-1.9-1-16.2-1.1L211.4,80V64.7c0-17.1-0.1-18-3.3-20.2l-1.6-1.1l-95.4-0.1C32.4,43.2,15.5,43.3,14.4,43.8z M196.7,69V80h-73.3c-72,0-73.3,0-75.1,0.9c-1,0.5-2.3,1.7-2.9,2.6l-1.1,1.8l-0.1,20.1c-0.1,13,0,20.8,0.4,22c0.7,2.6,2,4.1,5.5,5.8c6,3,9,7.9,8.7,14c-0.3,5.6-3.4,9.9-8.9,12.5l-3,1.4H35.8H24.8v-12.9v-12.9l2-1.4c2.6-1.8,7.2-6.7,8.8-9.4c0.6-1.2,1.8-3.7,2.5-5.7c1.1-3.2,1.2-4.3,1.2-9.2c0-4.8-0.1-5.9-1.2-8.9c-0.7-1.9-1.9-4.6-2.8-6c-1.8-2.9-7-8.4-9.1-9.5l-1.4-0.8V71.3V57.9h86h86V69z M159.1,96.6c0.6,3.5,5,6.9,8.3,6.2c3.4-0.7,6.3-3.9,6.3-6.9v-1.2h28.8h28.8v13v13l-2.9,2.1c-7.2,5.3-11.9,14.5-11.9,23.5s4.7,18.3,11.9,23.5l2.9,2.1v13v13h-28.8h-28.8V197c0-1.5-1.6-3.9-3.3-5c-1.2-0.7-2.1-0.9-4.3-0.8c-3.7,0.2-5.4,1.5-6.5,4.6l-0.8,2.3h-49.9H58.9v-13v-13l1.3-0.8c4.6-2.7,9.9-9.4,12-15.2c1.1-2.9,1.2-4,1.2-9.5c0-7.2-0.7-10-4.2-15.5c-2-3.2-6.3-7.6-8.9-9.2l-1.4-0.8v-13v-13h50h49.9L159.1,96.6z"/><path fill="#000000" d="M162.8,109.5c-4.4,2.7-5.1,8-1.4,11.5c3.5,3.5,9.4,2.5,11.5-2c1.6-3.3,0.5-7.3-2.4-9.3C168.4,108.3,164.9,108.2,162.8,109.5z"/><path fill="#000000" d="M164.2,129.4c-3.3,1-5.8,5.1-5.1,8.5c0.4,2,2.5,4.6,4.4,5.3c1.9,0.8,5.6,0.4,7.2-0.8c4.1-2.9,3.6-10-0.7-12.3C168.2,129.2,165.8,128.9,164.2,129.4z"/><path fill="#000000" d="M164.2,149.6c-3.3,1-5.8,5.1-5.1,8.5c0.4,2,2.5,4.6,4.4,5.3c1.9,0.8,5.6,0.4,7.2-0.8c4.1-2.9,3.6-10-0.7-12.3C168.2,149.5,165.8,149.2,164.2,149.6z"/><path fill="#000000" d="M163,170.9c-6.9,3.5-4.2,13.7,3.6,13.7c2.1,0,4.5-1.4,5.9-3.6c1.9-2.9,1.1-7.2-1.8-9.4C168.4,169.8,165.7,169.6,163,170.9z"/></g></g></g>
</svg>