<?xml version="1.0" encoding="utf-8"?>
<!-- Svg Vector Icons : http://www.onlinewebfonts.com/icon -->
<!DOCTYPE svg PUBLIC "-//W3C//DTD SVG 1.1//EN" "http://www.w3.org/Graphics/SVG/1.1/DTD/svg11.dtd">
<svg version="1.1" xmlns="http://www.w3.org/2000/svg" xmlns:xlink="http://www.w3.org/1999/xlink" x="0px" y="0px" viewBox="0 0 256 256" enable-background="new 0 0 256 256" xml:space="preserve">
<metadata> Svg Vector Icons : http://www.onlinewebfonts.com/icon </metadata>
<g><g><path fill="#000000" d="M178,128c31.7-20.1,53.2-58.8,53.2-103.3c0-5-0.3-9.9-0.8-14.8H25.6c-0.5,4.8-0.8,9.8-0.8,14.8c0,44.4,21.5,83.1,53.2,103.3c-31.8,20.1-53.3,58.8-53.3,103.2c0,5,0.3,9.9,0.8,14.8h204.9c0.5-4.8,0.8-9.8,0.8-14.8C231.2,186.8,209.7,148.1,178,128z M46.9,231.2c0-43.1,18.5-79.6,51.6-91.6v-23.2l0,0c-33.2-12-51.6-48.6-51.6-91.6l0,0h162.2l0,0c0,43.1-18.5,79.6-51.6,91.6v23.2c33.2,12.1,51.6,48.6,51.6,91.7L46.9,231.2L46.9,231.2z M152.8,164.3c-16.5-9.4-17.4-21.5-17.4-28.9v-14.8c0-7.4,0.9-19.6,17.5-29c8.9-5.2,16.5-13,22.4-22.7H80.8c5.8,9.7,13.5,17.5,22.4,22.7c16.5,9.4,17.4,21.5,17.4,28.9v14.8c0,7.4-0.9,19.6-17.5,28.9c-16.7,9.7-29.2,29-33,52.2h115.6C182,193.3,169.5,174.1,152.8,164.3z"/></g></g>
</svg>